# xmcd
#
# Track frame offsets:
#	150
#	16154
#	39674
#	45079
#	66576
#	71901
#	91941
#	105899
#	128068
#	144728
#	173083
#	191572
#	212651
#	233384
#	252300
#	265020
#	290482
#	307167
#
# Disc length: 4263
#
# Revision: 1
# Processed by: cddbd v1.5.1PL0 Copyright (c) Steve Scherf et al.
# Submitted via: ExactAudioCopy v0.90b4
# Normalized: r0:DSETVAR1
#
DISCID=fb10a512
DTITLE=Various Artist - Bolero - Spanische Feste - CD2
DYEAR=2002
DGENRE=Folk
TTITLE0=Bizet - Carmen - Suite Nr.1
TTITLE1=Bizet - Carmen
TTITLE2=Rimsky-Korssakoff - Capriccio espagnol op. 34 - Alborada
TTITLE3=Rimsky-Korssakoff - Variazioni
TTITLE4=Rimsky-Korssakoff - Alborada
TTITLE5=Rimsky-Korssakoff - Scena e canto gitano
TTITLE6=Rimsky-Korssakoff - Fandango asutriano
TTITLE7=Rodrigo - Fantasia para un Gentilhombre
TTITLE8=Grever - Júrame
TTITLE9=Ravel - Pavane pour une Infante Défunte
TTITLE10=Albeniz - Malagueña
TTITLE11=De Falla - Noches en los jardnies de España
TTITLE12=Granados - Danza española - Andaluza
TTITLE13=De Falla - El amor brujo
TTITLE14=Ginastera - Canción al árbol del olvido
TTITLE15=Granados - Danza española  Villanesca
TTITLE16=Traditional - Flamenco "Mama yo quiero un lucero"
TTITLE17=Vives - Doña Francisquita
EXTD=
EXTT0=
EXTT1=
EXTT2=
EXTT3=
EXTT4=
EXTT5=
EXTT6=
EXTT7=
EXTT8=
EXTT9=
EXTT10=
EXTT11=
EXTT12=
EXTT13=
EXTT14=
EXTT15=
EXTT16=
EXTT17=
PLAYORDER=
